<svg width="83" height="60" viewBox="0 0 83 60" fill="none" xmlns="http://www.w3.org/2000/svg">
<g clip-path="url(#clip0_13_753)">
<path fill-rule="evenodd" clip-rule="evenodd" d="M74.6783 61.6082C67.9781 72.3569 56.0501 79.5098 42.4514 79.5098C28.8527 79.5098 16.9247 72.3569 10.2245 61.6082H6.03467C13.1105 74.4351 26.7663 83.1238 42.4514 83.1238C58.1365 83.1238 71.7923 74.4351 78.8681 61.6082H74.6783ZM11.4437 19.6804C18.3155 9.96047 29.6423 3.61408 42.4514 3.61408C55.2605 3.61408 66.5874 9.96047 73.4591 19.6804H77.7936C70.4639 7.86696 57.3764 0 42.4514 0C27.5264 0 14.4389 7.86696 7.10925 19.6804H11.4437Z" fill="#656565"/>
<path d="M0.121742 24.9588H7.21719V26.5013H6.9087C6.77159 26.5013 6.62762 26.5081 6.4768 26.5219C6.32598 26.5356 6.19572 26.5561 6.08603 26.5836C5.99006 26.611 5.94207 26.6521 5.94207 26.707L7.64909 36.3732L7.36116 36.4349L9.89084 24.9588H14.1687L16.5133 36.291L16.2253 36.3115L18.0146 26.8715C18.0146 26.7892 17.9666 26.7207 17.8707 26.6658C17.7747 26.611 17.6513 26.5698 17.5005 26.5424C17.3633 26.515 17.2262 26.5013 17.0891 26.5013H16.7806V24.9588H20.8939V26.5013H20.7705C20.51 26.5013 20.2907 26.563 20.1124 26.6864C19.9479 26.8098 19.8313 27.0429 19.7628 27.3857L17.3154 39.561H12.8936L10.6312 28.0232H10.9192L8.47175 39.561H3.82372L1.23233 27.1183C1.1912 26.8578 1.08151 26.6932 0.90327 26.6247C0.725027 26.5424 0.50565 26.5013 0.245141 26.5013H0.121742V24.9588ZM28.9928 39.7667C27.8685 39.7667 26.8333 39.5953 25.8873 39.2525C24.9549 38.8961 24.146 38.3887 23.4604 37.7306C22.7749 37.0588 22.247 36.2635 21.8768 35.3449C21.5066 34.4263 21.3215 33.3979 21.3215 32.2599C21.3215 31.1219 21.5066 30.0936 21.8768 29.1749C22.247 28.2563 22.7749 27.4679 23.4604 26.8098C24.146 26.1517 24.9549 25.6444 25.8873 25.2879C26.8333 24.9314 27.8685 24.7531 28.9928 24.7531C30.1171 24.7531 31.1454 24.9314 32.0778 25.2879C33.0238 25.6444 33.8397 26.1517 34.5252 26.8098C35.2108 27.4679 35.7386 28.2563 36.1088 29.1749C36.479 30.0936 36.6641 31.1219 36.6641 32.2599C36.6641 33.3979 36.479 34.4263 36.1088 35.3449C35.7386 36.2635 35.2108 37.0588 34.5252 37.7306C33.8397 38.3887 33.0238 38.8961 32.0778 39.2525C31.1454 39.5953 30.1171 39.7667 28.9928 39.7667ZM28.9928 37.8746C29.4316 37.8746 29.8223 37.758 30.1651 37.5249C30.5079 37.2782 30.8027 36.9217 31.0495 36.4555C31.2963 35.9756 31.4814 35.386 31.6048 34.6868C31.7419 33.9875 31.8104 33.1786 31.8104 32.2599C31.8104 31.3413 31.7419 30.5323 31.6048 29.8331C31.4814 29.1338 31.2963 28.5511 31.0495 28.0849C30.8027 27.605 30.5079 27.2485 30.1651 27.0155C29.8223 26.7687 29.4316 26.6453 28.9928 26.6453C28.5678 26.6453 28.177 26.7687 27.8205 27.0155C27.4777 27.2485 27.183 27.605 26.9362 28.0849C26.6894 28.5511 26.4974 29.1338 26.3603 29.8331C26.2369 30.5323 26.1752 31.3413 26.1752 32.2599C26.1752 33.1786 26.2369 33.9875 26.3603 34.6868C26.4974 35.386 26.6894 35.9756 26.9362 36.4555C27.183 36.9217 27.4777 37.2782 27.8205 37.5249C28.177 37.758 28.5678 37.8746 28.9928 37.8746ZM44.7174 33.0003L47.4321 39.561H52.5326V38.0185H52.3681C52.231 38.0185 52.1076 38.0048 51.9979 37.9774C51.9019 37.9363 51.8128 37.8746 51.7306 37.7923C51.6483 37.71 51.566 37.5935 51.4838 37.4427L49.1597 32.6507L44.7174 33.0003ZM43.7919 37.8129V26.6864H44.9436C45.3686 26.6864 45.7183 26.7892 45.9925 26.9949C46.2667 27.1868 46.4724 27.4679 46.6095 27.8381C46.7603 28.2083 46.8357 28.6539 46.8357 29.1749C46.8357 29.7508 46.7603 30.2513 46.6095 30.6763C46.4724 31.0876 46.2599 31.4098 45.9719 31.6429C45.684 31.8623 45.3069 31.972 44.8408 31.972H43.3805V33.679H45.3344C45.4166 33.679 45.492 33.679 45.5606 33.679C45.6429 33.6653 45.7251 33.6584 45.8074 33.6584C45.8897 33.6584 45.9514 33.6516 45.9925 33.6379C47.2265 33.5967 48.2617 33.3911 49.098 33.0209C49.9344 32.6507 50.5583 32.1365 50.9696 31.4784C51.3946 30.8203 51.6072 30.0524 51.6072 29.1749C51.6072 28.3111 51.3809 27.5639 50.9285 26.9332C50.4897 26.3025 49.8384 25.8157 48.9746 25.473C48.1246 25.1302 47.0825 24.9588 45.8485 24.9588H37.8687V26.5013H38.0744C38.376 26.5013 38.6228 26.5493 38.8148 26.6453C39.0204 26.7412 39.1233 26.94 39.1233 27.2417V37.2782C39.1233 37.5798 39.0204 37.7786 38.8148 37.8746C38.6228 37.9706 38.376 38.0185 38.0744 38.0185H37.8687V39.561H44.9025V38.0185H44.7174C44.6077 38.0185 44.498 38.0185 44.3883 38.0185C44.2786 38.0048 44.1758 37.9911 44.0798 37.9774C43.9975 37.95 43.929 37.9294 43.8741 37.9157C43.8193 37.8883 43.7919 37.854 43.7919 37.8129ZM60.8166 24.9588H53.4744V26.5013H53.68C53.9817 26.5013 54.2285 26.5493 54.4204 26.6453C54.6261 26.7412 54.7289 26.94 54.7289 27.2417V37.2782C54.7289 37.5798 54.6261 37.7786 54.4204 37.8746C54.2285 37.9706 53.9817 38.0185 53.68 38.0185H53.4744V39.561H65.6086V34.5428H63.5725L63.3669 36.9285C63.3532 37.1753 63.264 37.3604 63.0995 37.4838C62.935 37.6072 62.6813 37.6963 62.3385 37.7512C62.0095 37.7923 61.5776 37.8129 61.0428 37.8129H59.3975V27.2417C59.3975 26.94 59.5004 26.7412 59.706 26.6453C59.9117 26.5493 60.1791 26.5013 60.5081 26.5013H60.8166V24.9588ZM66.7101 26.5013V24.9588H74.0523C75.2589 24.9588 76.3558 25.1233 77.3429 25.4524C78.3439 25.7678 79.2076 26.2339 79.9343 26.8509C80.661 27.4679 81.2232 28.2289 81.6208 29.1338C82.0184 30.0387 82.2172 31.0671 82.2172 32.2188C82.2172 33.3705 82.0184 34.3988 81.6208 35.3038C81.2232 36.2087 80.661 36.9834 79.9343 37.6278C79.2076 38.2585 78.3439 38.7384 77.3429 39.0674C76.3558 39.3965 75.2589 39.561 74.0523 39.561H66.7101V38.0185H66.9363C67.2379 38.0185 67.4847 37.9706 67.6767 37.8746C67.8686 37.7786 67.9646 37.5798 67.9646 37.2782V27.2417C67.9646 26.9675 67.8686 26.7755 67.6767 26.6658C67.4847 26.5561 67.2379 26.5013 66.9363 26.5013H66.7101ZM73.8466 26.7275H72.6332V37.7923H73.8466C74.3677 37.7923 74.8407 37.6689 75.2657 37.4221C75.6908 37.1753 76.061 36.812 76.3763 36.3321C76.6917 35.8522 76.9316 35.2695 77.0961 34.5839C77.2744 33.8847 77.3635 33.0963 77.3635 32.2188C77.3635 31.3413 77.2744 30.5666 77.0961 29.8948C76.9316 29.2092 76.6917 28.6334 76.3763 28.1672C76.061 27.6873 75.6908 27.3308 75.2657 27.0977C74.8407 26.8509 74.3677 26.7275 73.8466 26.7275Z" fill="#656565"/>
<path d="M25.1107 56.5001V45.4148H26.0567C26.5229 45.4148 26.9274 45.5108 27.2701 45.7027C27.6129 45.8947 27.8734 46.1895 28.0517 46.5871C28.2436 46.971 28.3396 47.4851 28.3396 48.1296C28.3396 48.7603 28.2436 49.2881 28.0517 49.7132C27.8597 50.1245 27.5855 50.4399 27.229 50.6592C26.8862 50.8649 26.468 50.9677 25.9745 50.9677H24.4937V52.7159H27.0439C28.2505 52.7159 29.2925 52.5308 30.17 52.1606C31.0475 51.7767 31.7194 51.2351 32.1855 50.5358C32.6654 49.8366 32.9054 49.0071 32.9054 48.0473C32.9054 46.6488 32.4049 45.5656 31.404 44.7978C30.4031 44.03 28.984 43.6461 27.1467 43.6461H19.1875V45.1885H19.3932C19.7085 45.1885 19.9622 45.2365 20.1541 45.3325C20.3598 45.4285 20.4626 45.6273 20.4626 45.9289V55.9654C20.4626 56.267 20.3598 56.4659 20.1541 56.5618C19.9622 56.6578 19.7085 56.7058 19.3932 56.7058H19.1875V58.2483H26.5914V56.7058H26.0979C25.9882 56.7058 25.8716 56.7058 25.7482 56.7058C25.6385 56.6921 25.5357 56.6784 25.4397 56.6647C25.3437 56.6372 25.2615 56.6167 25.1929 56.603C25.1381 56.5755 25.1107 56.5413 25.1107 56.5001ZM34.9631 55.9654V45.9289C34.9631 45.6273 34.8603 45.4285 34.6547 45.3325C34.4627 45.2365 34.2159 45.1885 33.9143 45.1885H33.7086V43.6461H40.8863V45.1885H40.6806C40.379 45.1885 40.1253 45.2365 39.9197 45.3325C39.7277 45.4285 39.6318 45.6273 39.6318 45.9289V55.9654C39.6318 56.267 39.7277 56.4659 39.9197 56.5618C40.1253 56.6578 40.379 56.7058 40.6806 56.7058H40.8863V58.2483H33.7086V56.7058H33.9143C34.2159 56.7058 34.4627 56.6578 34.6547 56.5618C34.8603 56.4659 34.9631 56.267 34.9631 55.9654ZM46.4047 45.4148C46.1031 45.4148 45.8357 45.4285 45.6026 45.4559C45.3695 45.4696 45.1639 45.5108 44.9856 45.5793C44.8211 45.6479 44.6908 45.737 44.5949 45.8467C44.5126 45.9564 44.4646 46.1072 44.4509 46.2991L44.3275 48.0679H42.312V43.6461H53.8498V45.8055L45.5204 58.0632L44.7388 56.4796H49.5925C50.1273 56.4796 50.5592 56.459 50.8882 56.4179C51.2173 56.363 51.4572 56.2739 51.6081 56.1505C51.7726 56.0271 51.8686 55.842 51.896 55.5952L52.1222 53.3535H54.1377V58.2483H41.9007V56.0065L49.9833 44.078L50.6414 45.4148H46.4047ZM59.6806 45.4148C59.3789 45.4148 59.1116 45.4285 58.8785 45.4559C58.6454 45.4696 58.4397 45.5108 58.2615 45.5793C58.097 45.6479 57.9667 45.737 57.8707 45.8467C57.7885 45.9564 57.7405 46.1072 57.7268 46.2991L57.6034 48.0679H55.5878V43.6461H67.1257V45.8055L58.7962 58.0632L58.0147 56.4796H62.8684C63.4031 56.4796 63.835 56.459 64.1641 56.4179C64.4931 56.363 64.7331 56.2739 64.8839 56.1505C65.0484 56.0271 65.1444 55.842 65.1718 55.5952L65.3981 53.3535H67.4136V58.2483H55.1765V56.0065L63.2592 44.078L63.9173 45.4148H59.6806ZM71.3307 51.8932H76.822V53.6208H71.2896L71.3307 51.8932ZM73.5313 45.024L74.3129 46.1757L71.0839 56.3356C71.0839 56.4042 71.1388 56.4727 71.2484 56.5413C71.3581 56.5961 71.4952 56.6372 71.6598 56.6647C71.838 56.6921 72.0163 56.7058 72.1945 56.7058H72.4619V58.2483H68.2457V56.7058H68.3486C68.6091 56.7058 68.8079 56.651 68.945 56.5413C69.0958 56.4179 69.2261 56.1779 69.3358 55.8214L73.264 43.6461H77.768L81.8196 56.1299C81.8882 56.363 82.0047 56.5207 82.1693 56.603C82.3338 56.6715 82.5463 56.7058 82.8068 56.7058H82.8891V58.2483H75.6703V56.7058H75.9787C76.1707 56.7058 76.3489 56.6989 76.5135 56.6852C76.6917 56.6715 76.8357 56.651 76.9454 56.6235C77.0688 56.5824 77.1305 56.5413 77.1305 56.5001L73.5313 45.024Z" fill="#656565"/>
<path d="M4.84695 53.0993C4.23639 53.0993 3.68331 53.0131 3.18768 52.8408C2.69924 52.6612 2.27545 52.4026 1.9163 52.065C1.56433 51.7202 1.29138 51.2964 1.09744 50.7936C0.910683 50.2836 0.817305 49.6982 0.817305 49.0374C0.817305 48.3765 0.910683 47.7947 1.09744 47.2919C1.29138 46.7819 1.56433 46.3581 1.9163 46.0205C2.27545 45.6758 2.69924 45.4172 3.18768 45.2448C3.68331 45.0652 4.23639 44.9754 4.84695 44.9754C5.45032 44.9754 5.99622 45.0652 6.48466 45.2448C6.98029 45.4172 7.40408 45.6758 7.75605 46.0205C8.11519 46.3581 8.38815 46.7819 8.5749 47.2919C8.76884 47.7947 8.86581 48.3765 8.86581 49.0374C8.86581 49.6982 8.76884 50.2836 8.5749 50.7936C8.38815 51.2964 8.11519 51.7202 7.75605 52.065C7.40408 52.4026 6.98029 52.6612 6.48466 52.8408C5.99622 53.0131 5.45032 53.0993 4.84695 53.0993ZM4.84695 52.065C5.12708 52.065 5.36771 52.0111 5.56883 51.9034C5.77714 51.7956 5.94953 51.6232 6.08601 51.3862C6.22248 51.142 6.32304 50.8259 6.38769 50.4381C6.45952 50.0502 6.49544 49.5833 6.49544 49.0374C6.49544 48.4915 6.45952 48.0246 6.38769 47.6367C6.32304 47.2488 6.22248 46.9364 6.08601 46.6993C5.94953 46.4551 5.77714 46.2791 5.56883 46.1714C5.36771 46.0636 5.12708 46.0098 4.84695 46.0098C4.56681 46.0098 4.32259 46.0636 4.11428 46.1714C3.90598 46.2791 3.73359 46.4551 3.59711 46.6993C3.46063 46.9364 3.35648 47.2488 3.28465 47.6367C3.22001 48.0246 3.18768 48.4915 3.18768 49.0374C3.18768 49.5833 3.22001 50.0502 3.28465 50.4381C3.35648 50.8259 3.45704 51.142 3.58634 51.3862C3.72281 51.6232 3.8952 51.7956 4.10351 51.9034C4.319 52.0111 4.56681 52.065 4.84695 52.065ZM12.7126 46.1606V51.7525C12.7126 51.7956 12.7306 51.828 12.7665 51.8495C12.8096 51.8711 12.8635 51.889 12.9281 51.9034C12.9999 51.9106 13.079 51.9177 13.1652 51.9249C13.2513 51.9249 13.3411 51.9249 13.4345 51.9249H13.6392V52.8623H9.7281V51.9249H9.83585C10.0082 51.9249 10.1483 51.8998 10.2561 51.8495C10.371 51.7992 10.4284 51.6951 10.4284 51.537V46.5377C10.4284 46.3797 10.371 46.2755 10.2561 46.2252C10.1483 46.175 10.0082 46.1498 9.83585 46.1498H9.7281V45.2125H16.2359V47.3889H15.18L15.0722 46.6347C15.0579 46.5054 15.0076 46.4084 14.9214 46.3438C14.8352 46.2719 14.7167 46.2252 14.5658 46.2037C14.415 46.175 14.2318 46.1606 14.0163 46.1606H12.7126ZM12.5079 48.671C12.8168 48.6495 13.1256 48.6279 13.4345 48.6064C13.7434 48.5777 14.0487 48.5525 14.3503 48.531C14.6592 48.5022 14.9645 48.4771 15.2662 48.4556V49.7162C14.9573 49.6946 14.652 49.6731 14.3503 49.6515C14.0487 49.63 13.7434 49.6084 13.4345 49.5869C13.1256 49.5581 12.8168 49.533 12.5079 49.5115V48.671Z" fill="#656565"/>
<path d="M39.972 18.4476C38.7673 16.2389 38.5263 11.3399 47.2001 9.41235C48.204 13.428 48.7662 21.2183 42.9837 20.2546C42.9837 18.7516 43.1946 15.7367 44.0114 14.9605C42.5603 16.0067 39.972 17.9852 39.972 18.4476Z" fill="#656565"/>
<circle cx="27.3195" cy="17.0514" r="4.21643" fill="#656565"/>
<circle cx="58.8836" cy="16.9558" r="2.40939" fill="#656565"/>
</g>
<defs>
<clipPath id="clip0_13_753">
<rect width="83" height="60" fill="white"/>
</clipPath>
</defs>
</svg>
