<svg width="175" height="175" viewBox="0 0 175 175" fill="none" xmlns="http://www.w3.org/2000/svg">
<g clip-path="url(#clip0_13_774)">
<circle cx="87.5" cy="87.5" r="87.5" fill="#FFF0CC"/>
<path d="M148.94 97.4334L127.546 42.9356C127.542 42.9225 127.529 42.9154 127.522 42.9033C127.516 42.8891 127.518 42.873 127.511 42.8588C127.475 42.7861 127.413 42.7345 127.361 42.6749C127.33 42.6406 127.31 42.5981 127.274 42.5688C127.261 42.5587 127.248 42.5496 127.234 42.5395C127.208 42.5203 127.178 42.5163 127.151 42.5001C127.071 42.4536 126.991 42.4031 126.899 42.3809L48.625 25.0212C48.5876 25.0121 48.5492 25.0182 48.5118 25.0141C48.4956 25.0131 48.4845 25.001 48.4683 25C48.4542 25 48.4421 25.0091 48.4279 25.0091C48.334 25.0091 48.242 25.0232 48.1541 25.0525C48.1379 25.0586 48.1208 25.0586 48.1046 25.0637C48.0824 25.0727 48.0622 25.0839 48.0419 25.094C48.0157 25.1051 47.9955 25.1213 47.9722 25.1364C47.8853 25.1869 47.8085 25.2526 47.7419 25.3324C47.7328 25.3425 47.7186 25.3456 47.7095 25.3557C47.7035 25.3627 47.7055 25.3718 47.7004 25.3789C47.6903 25.393 47.6742 25.4032 47.6661 25.4183L42.02 34.2654C41.9543 34.3684 41.9098 34.4826 41.8896 34.6039L41.8886 34.6129C41.8846 34.6372 41.8927 34.6604 41.8896 34.6857C41.8866 34.7251 41.8906 34.7595 41.8927 34.7968C41.8967 34.914 41.923 35.0232 41.9695 35.1252C41.9786 35.1454 41.9735 35.1697 41.9836 35.1909L65.8999 79.4508L19.3819 112.229C19.3687 112.238 19.3657 112.255 19.3546 112.263C19.3404 112.274 19.3212 112.274 19.3081 112.286C19.2343 112.35 19.198 112.44 19.1505 112.523C19.1232 112.57 19.0798 112.605 19.0606 112.656C19.003 112.811 18.9828 112.979 19.0161 113.147L21.0975 123.487C21.1218 123.607 21.1854 123.71 21.2521 123.808C21.2683 123.831 21.2713 123.861 21.2885 123.884C21.2915 123.887 21.2946 123.891 21.2976 123.894C21.3309 123.933 21.3835 123.95 21.4239 123.984C21.4977 124.044 21.5643 124.114 21.6553 124.15C21.6613 124.151 21.6664 124.151 21.6714 124.153C21.6755 124.154 21.6775 124.16 21.6815 124.161L94.9427 150.267C95.0407 150.302 95.1458 150.32 95.2469 150.32C95.3499 150.32 95.453 150.3 95.55 150.265C95.5834 150.254 95.6106 150.232 95.6409 150.218C95.6915 150.194 95.745 150.173 95.7915 150.138C95.8006 150.132 95.8016 150.122 95.8107 150.115C95.8218 150.105 95.838 150.102 95.8481 150.092L142.418 108.594C142.45 108.567 142.471 108.531 142.498 108.498C142.521 108.471 142.547 108.446 142.567 108.415C142.571 108.408 142.58 108.402 142.585 108.395L143.955 106.181C144.074 106.242 144.196 106.301 144.336 106.305H144.36C144.704 106.305 145.021 106.109 145.172 105.797L148.913 98.1638C148.937 98.1133 148.939 98.0567 148.953 98.0031C148.964 97.9637 148.98 97.9304 148.986 97.89C148.99 97.8677 148.997 97.8475 148.998 97.8243C149.007 97.6939 148.99 97.5626 148.943 97.4373L148.942 97.4333L148.94 97.4334ZM48.8528 26.9295L125.425 43.9133L121.707 52.2643L44.2292 34.1721L48.8528 26.9295ZM126.294 110.175C125.968 107.98 124.871 105.728 123.06 103.45L134.173 106.657L126.407 112.752C126.452 111.921 126.425 111.064 126.294 110.175ZM41.4447 118.724C41.5811 119.04 41.7519 119.353 41.9196 119.666L32.9259 116.54L40.1987 111.296C40.1947 111.332 40.1856 111.366 40.1825 111.402C39.7966 114.909 40.9941 117.68 41.4447 118.724ZM41.9812 111.599C42.5652 106.26 51.6798 107.524 55 105C59.5993 101.506 60.8487 94.1279 67.7203 92.3799C80.7049 89.0729 81.6522 108.014 87.1278 109.158C91.9413 110.164 106.405 99.0939 114 106C117.446 109.134 124.08 107.59 124.504 110.44C124.712 111.826 124.621 113.126 124.377 114.346L98.8299 134.398C94.5811 135.244 90.9417 135.32 88.3712 135.367C87.9266 135.376 87.5123 135.364 87.0839 135.363L44.7226 120.64C44.0386 119.772 43.4889 118.895 43.106 118.006C42.7068 117.084 41.6488 114.629 41.9812 111.599ZM69.6401 90.071L71.6589 88.615L73.9778 89.2839C72.5622 89.4961 71.1184 89.7517 69.6401 90.071ZM120.729 100.891C120.454 100.624 116.795 103.27 116.5 103C108.542 95.7616 92.4803 108.429 87.5 107.387C83.5606 106.565 84.5 101 78.5 94L72.7497 87.0439L76.3578 79.1477L94.4197 84.0714L139.541 96.3721L141.475 100.925L135.93 105.278L120.729 100.891ZM76.4714 77.3037L56.2512 38.8379L121.577 54.091L138.637 94.2484L76.4714 77.3037ZM44.5368 36.1012L53.9204 38.2928L74.7539 77.9226L71.1598 81.7803L70.3211 77.8812C70.2575 77.5841 70.0483 77.3376 69.7664 77.2275C69.4825 77.1163 69.1622 77.1547 68.9156 77.3305L67.396 78.4005L44.5368 36.1012ZM68.8401 79.6006L70.481 87.2363L65.5 96.5C59.4426 98.2945 59.8162 105 53.5 104.5C50.67 106.649 44.1329 107.066 42.5 111.599L30.8395 115.814L21.8701 112.697L68.8401 79.6006ZM22.7721 122.629L21.105 114.347L93.6781 139.572L94.25 148.101L22.7721 122.629ZM94.3753 137.896L91.9705 137.061C93.1689 136.997 94.4925 136.878 95.896 136.701L94.3753 137.896ZM141.051 107.387L96.0256 147.511L95.4779 139.333L143.201 101.873L141.051 107.387ZM145.397 101.227L146.092 99.4423C146.24 99.0614 146.115 98.6299 145.788 98.3864C145.462 98.145 145.01 98.149 144.69 98.4006L142.95 99.7646L123.219 53.3242L126.653 45.6137L147.112 97.7292L145.397 101.227Z" fill="#F1AB00"/>
<path d="M82.3859 114.533C82.4799 114.955 82.8538 115.239 83.268 115.239C83.3337 115.239 83.4014 115.232 83.4681 115.215C83.9561 115.105 84.2623 114.62 84.1521 114.133C83.4307 110.942 81.7302 109.572 78.2836 109.4C77.7956 109.37 77.3591 109.759 77.3348 110.258C77.3085 110.758 77.6945 111.183 78.1936 111.207C80.8268 111.34 81.8473 112.148 82.3858 114.533L82.3859 114.533Z" fill="#F1AB00"/>
<path d="M97.9368 109.717C97.9701 109.717 98.0035 109.716 98.0378 109.711C98.5349 109.657 98.8926 109.209 98.837 108.712C98.7835 108.224 99.5928 107.229 101.503 106.193C101.943 105.954 102.105 105.405 101.866 104.966C101.627 104.526 101.078 104.364 100.64 104.603C98.8836 105.555 96.8324 107.077 97.0375 108.913C97.0901 109.376 97.4821 109.717 97.9368 109.717V109.717Z" fill="#F1AB00"/>
<path d="M70.6633 101.587C70.7007 101.591 70.7401 101.594 70.7775 101.594C70.9856 101.594 71.1887 101.522 71.3524 101.388C71.5454 101.231 71.6636 101 71.6808 100.751C71.8516 98.2822 69.9358 95.7654 69.854 95.6573C69.5873 95.3087 69.1093 95.2036 68.7153 95.4077L63.1933 98.3076C62.9539 98.4339 62.7831 98.6592 62.7286 98.923C62.674 99.1867 62.7387 99.4635 62.9084 99.6747C63.1115 99.9323 63.7339 100.71 70.6631 101.587L70.6633 101.587ZM68.8385 97.3899C69.1932 97.977 69.6095 98.8075 69.7883 99.6421C68.3576 99.436 66.8996 99.1854 65.8427 98.9641L68.8385 97.3899Z" fill="#F1AB00"/>
<path d="M49.0442 112.635C48.8604 113.1 49.0877 113.626 49.5525 113.81C51.3298 114.512 54.2599 116.53 54.5974 116.977C54.7551 117.294 55.0754 117.478 55.4088 117.478C55.5452 117.478 55.6826 117.448 55.8129 117.382C56.2606 117.159 56.4414 116.614 56.2181 116.168C55.7129 115.159 51.9533 112.815 50.2195 112.129C49.7557 111.943 49.2293 112.17 49.0443 112.635L49.0442 112.635Z" fill="#F1AB00"/>
<path d="M76.7445 123.408C75.9756 123.143 71.9683 121.844 68.6825 122.416C68.1904 122.503 67.86 122.971 67.9469 123.463C68.0338 123.955 68.5046 124.287 68.9937 124.198C71.1994 123.814 74.2295 124.452 76.1524 125.118C76.2494 125.151 76.3495 125.167 76.4475 125.167C76.8223 125.167 77.1729 124.933 77.3033 124.559C77.467 124.086 77.2164 123.572 76.7445 123.408L76.7445 123.408Z" fill="#F1AB00"/>
<path d="M108.625 113.013C108.225 113.313 108.144 113.881 108.444 114.28C109.28 115.395 111.013 115.729 112.696 115.729C114.339 115.729 115.932 115.41 116.582 115.193C117.056 115.036 117.312 114.522 117.154 114.047C116.997 113.573 116.482 113.316 116.008 113.475C114.598 113.943 110.696 114.265 109.892 113.195C109.593 112.793 109.023 112.712 108.625 113.013L108.625 113.013Z" fill="#F1AB00"/>
<path d="M78.612 97.6301C80.6672 97.6301 82.2778 96.3479 82.2778 94.7101C82.2778 93.0722 80.6672 91.79 78.612 91.79C76.5569 91.79 74.9463 93.0722 74.9463 94.7101C74.9463 96.3479 76.5559 97.6301 78.612 97.6301ZM78.612 93.6017C79.7053 93.6017 80.4671 94.1857 80.4671 94.7111C80.4671 95.2366 79.7053 95.8206 78.612 95.8206C77.5188 95.8206 76.7569 95.2356 76.7569 94.7101C76.7569 94.1847 77.5188 93.6017 78.612 93.6017Z" fill="#F1AB00"/>
<path d="M116.258 111.21C118.095 111.21 119.588 109.933 119.588 108.364C119.588 106.795 118.095 105.519 116.258 105.519C114.421 105.519 112.928 106.795 112.928 108.364C112.928 109.933 114.42 111.21 116.258 111.21ZM116.258 107.331C117.082 107.331 117.778 107.805 117.778 108.365C117.778 108.926 117.082 109.4 116.258 109.4C115.433 109.4 114.738 108.926 114.738 108.365C114.738 107.805 115.433 107.331 116.258 107.331Z" fill="#F1AB00"/>
<path d="M100.472 122.405C98.5398 122.405 97.0252 123.487 97.0252 124.866C97.0252 126.246 98.5388 127.328 100.472 127.328C102.404 127.328 103.918 126.246 103.918 124.866C103.918 123.485 102.405 122.405 100.472 122.405ZM100.472 125.518C99.3986 125.518 98.8358 125.034 98.8358 124.866C98.8358 124.699 99.3976 124.215 100.472 124.215C101.545 124.215 102.108 124.699 102.108 124.866C102.108 125.034 101.546 125.518 100.472 125.518Z" fill="#F1AB00"/>
<path d="M68.2319 105.571C68.2319 106.961 69.7424 108.01 71.7492 108.01C73.7558 108.01 75.2665 106.961 75.2665 105.571C75.2665 104.181 73.756 103.132 71.7492 103.132C69.7425 103.132 68.2319 104.181 68.2319 105.571ZM71.7492 104.942C72.8859 104.942 73.4558 105.451 73.4558 105.571C73.4558 105.691 72.8869 106.199 71.7492 106.199C70.6125 106.199 70.0426 105.691 70.0426 105.571C70.0426 105.451 70.6104 104.942 71.7492 104.942Z" fill="#F1AB00"/>
<path d="M52.7121 119.929C52.7121 121.275 54.2914 122.252 56.4679 122.252C58.6453 122.252 60.2237 121.276 60.2237 119.929C60.2237 118.582 58.6444 117.606 56.4679 117.606C54.2905 117.606 52.7121 118.583 52.7121 119.929ZM56.4679 119.418C57.5237 119.418 58.1846 119.741 58.3755 119.93C58.1846 120.12 57.5237 120.443 56.4679 120.443C55.2847 120.443 54.5976 120.038 54.5107 119.992C54.5976 119.822 55.2847 119.418 56.4679 119.418Z" fill="#F1AB00"/>
<path d="M82.1454 106.466C82.1878 106.472 82.2292 106.475 82.2697 106.475C82.7143 106.475 83.1023 106.147 83.1659 105.694C83.3164 104.608 84.0884 101.592 85.8161 100.706C86.2607 100.478 86.4375 99.9316 86.2092 99.4871C85.9818 99.0425 85.4352 98.8667 84.9906 99.094C82.0675 100.593 81.3996 105.25 81.3725 105.447C81.3048 105.943 81.6513 106.398 82.1454 106.466L82.1454 106.466Z" fill="#F1AB00"/>
<path d="M87.8515 95.5993C89.7935 95.2386 92.9034 97.5312 93.9443 98.4446C94.1171 98.5952 94.3293 98.671 94.5415 98.671C94.793 98.671 95.0426 98.5669 95.2225 98.3638C95.5529 97.9889 95.5165 97.416 95.1416 97.0866C94.691 96.6916 90.6554 93.2338 87.5191 93.822C87.028 93.913 86.7037 94.3869 86.7966 94.8779C86.8876 95.3679 87.3625 95.6933 87.8515 95.5993V95.5993Z" fill="#F1AB00"/>
<path d="M96.5736 127.863L92.3957 125.625C92.1613 125.498 91.8844 125.483 91.6379 125.58C91.3913 125.677 91.1994 125.877 91.1125 126.126L89.7697 130.007C89.612 130.463 89.8394 130.963 90.287 131.142C90.7983 131.35 91.546 131.523 92.3876 131.523C93.8567 131.523 95.6088 130.993 96.8871 129.184C97.0366 128.973 97.0881 128.706 97.0285 128.454C96.9679 128.2 96.8032 127.986 96.5738 127.863L96.5736 127.863ZM91.8026 129.667L92.4765 127.722L94.6984 128.912C93.7031 129.738 92.5614 129.773 91.8027 129.667L91.8026 129.667Z" fill="#F1AB00"/>
<path d="M112.937 119.052L107.415 117.635C107.118 117.559 106.803 117.638 106.577 117.845C106.351 118.052 106.246 118.357 106.296 118.66L106.893 122.241C106.959 122.634 107.273 122.936 107.667 122.99C107.835 123.013 108.005 123.022 108.175 123.022C110.601 123.022 113.036 120.858 113.323 120.596C113.568 120.372 113.671 120.031 113.59 119.708C113.51 119.387 113.258 119.135 112.937 119.052L112.937 119.052ZM108.554 121.184L108.312 119.734L110.647 120.335C110.001 120.73 109.251 121.084 108.554 121.184H108.554Z" fill="#F1AB00"/>
<path d="M71.5 88L31 116.5L94.5 139L135.5 106L71.5 88Z" fill="#FFF0CC" stroke="#F1AB00" stroke-width="2"/>
</g>
<defs>
<clipPath id="clip0_13_774">
<rect width="175" height="175" fill="white"/>
</clipPath>
</defs>
</svg>
