<svg width="63" height="46" viewBox="0 0 63 46" fill="none" xmlns="http://www.w3.org/2000/svg">
<g clip-path="url(#clip0_7_3)">
<path fill-rule="evenodd" clip-rule="evenodd" d="M55.7838 46.0205C50.7789 54.0497 41.8687 59.3928 31.7106 59.3928C21.5525 59.3928 12.6424 54.0497 7.63743 46.0205H4.50769C9.79327 55.6021 19.994 62.0925 31.7106 62.0925C43.4273 62.0925 53.628 55.6021 58.9136 46.0205H55.7838ZM8.54836 14.7009C13.6815 7.4403 22.1424 2.69967 31.7106 2.69967C41.2788 2.69967 49.7398 7.4403 54.8729 14.7009H58.1107C52.6355 5.87647 42.8593 0 31.7106 0C20.5619 0 10.7857 5.87647 5.31054 14.7009H8.54836Z" fill="#F1AC00"/>
<path d="M0.1677 18.4512H5.40647V19.6956H5.19138C5.07872 19.6956 4.96094 19.7007 4.83804 19.711C4.72537 19.7212 4.6332 19.7366 4.5615 19.757C4.48981 19.7775 4.45396 19.8083 4.45396 19.8492L5.83663 27.1927L5.63691 27.1313L7.60337 18.4512H10.7528L12.5963 27.1313L12.3505 27.2081L13.8254 19.9875C13.8254 19.926 13.7895 19.8748 13.7178 19.8339C13.6564 19.7929 13.5693 19.7622 13.4567 19.7417C13.3542 19.711 13.2364 19.6956 13.1033 19.6956H12.8882V18.4512H15.9915V19.6956H15.8994C15.6843 19.6956 15.5102 19.7468 15.377 19.8492C15.2541 19.9414 15.1671 20.1155 15.1158 20.3716L13.2262 29.3589H9.93854L8.15643 20.6635L8.38688 20.6788L6.46651 29.3589H3.00985L1.02803 20.1258C0.997299 19.9414 0.915364 19.8236 0.782218 19.7724C0.649072 19.7212 0.48008 19.6956 0.275241 19.6956H0.1677V18.4512ZM22.2145 29.6047C21.3542 29.6047 20.5758 29.4767 19.8793 29.2206C19.1829 28.9646 18.5786 28.5907 18.0665 28.0991C17.5544 27.6075 17.1601 27.0084 16.8835 26.3017C16.607 25.595 16.4687 24.7961 16.4687 23.905C16.4687 23.0037 16.607 22.2049 16.8835 21.5084C17.1601 20.8017 17.5544 20.2077 18.0665 19.7263C18.5786 19.2347 19.1829 18.8609 19.8793 18.6048C20.5758 18.3385 21.3542 18.2054 22.2145 18.2054C23.0646 18.2054 23.8378 18.3385 24.5343 18.6048C25.241 18.8609 25.8453 19.2347 26.3471 19.7263C26.8592 20.2077 27.2535 20.8017 27.5301 21.5084C27.8066 22.2049 27.9449 23.0037 27.9449 23.905C27.9449 24.7961 27.8066 25.595 27.5301 26.3017C27.2535 27.0084 26.8592 27.6075 26.3471 28.0991C25.8453 28.5907 25.241 28.9646 24.5343 29.2206C23.8378 29.4767 23.0646 29.6047 22.2145 29.6047ZM22.2145 28.1606C22.573 28.1606 22.8905 28.0786 23.167 27.9148C23.4435 27.7509 23.674 27.4948 23.8583 27.1466C24.0529 26.7882 24.1963 26.3426 24.2885 25.81C24.3909 25.2775 24.4421 24.6425 24.4421 23.905C24.4421 23.1676 24.3909 22.5326 24.2885 22C24.1963 21.4675 24.0529 21.027 23.8583 20.6788C23.674 20.3204 23.4435 20.0592 23.167 19.8953C22.8905 19.7314 22.573 19.6495 22.2145 19.6495C21.856 19.6495 21.5334 19.7314 21.2466 19.8953C20.9701 20.0592 20.7345 20.3204 20.5399 20.6788C20.3556 21.027 20.2122 21.4675 20.1098 22C20.0176 22.5326 19.9715 23.1676 19.9715 23.905C19.9715 24.6425 20.0176 25.2775 20.1098 25.81C20.2122 26.3426 20.3556 26.7882 20.5399 27.1466C20.7345 27.4948 20.9701 27.7509 21.2466 27.9148C21.5334 28.0786 21.856 28.1606 22.2145 28.1606ZM34.2635 24.4581L36.3989 29.3589H40.1782V28.1145H40.0553C39.9324 28.1145 39.8146 28.0991 39.702 28.0684C39.5995 28.0377 39.5022 27.9762 39.4101 27.884C39.3281 27.7919 39.2411 27.6587 39.1489 27.4846L37.3514 23.9358L34.2635 24.4581ZM33.3571 27.9609V19.7417H34.5707C34.8882 19.7417 35.1494 19.8134 35.3543 19.9568C35.5591 20.1001 35.7076 20.3101 35.7998 20.5866C35.9022 20.8632 35.9534 21.196 35.9534 21.5852C35.9534 22.0154 35.9022 22.3892 35.7998 22.7067C35.6974 23.0242 35.5386 23.27 35.3235 23.4442C35.1084 23.608 34.8268 23.69 34.4786 23.69H32.9576V24.9804H35.1238C35.1853 24.9497 35.2365 24.9241 35.2774 24.9036C35.3184 24.8831 35.3645 24.8575 35.4157 24.8268C35.4669 24.7961 35.5181 24.7602 35.5693 24.7193C36.3989 24.6578 37.1005 24.494 37.6741 24.2277C38.2476 23.9511 38.6778 23.5824 38.9645 23.1215C39.2616 22.6606 39.4101 22.1229 39.4101 21.5084C39.4101 20.8529 39.2462 20.2999 38.9185 19.8492C38.5907 19.3883 38.1145 19.0401 37.4897 18.8045C36.8752 18.569 36.1122 18.4512 35.2006 18.4512H29.0094V19.6956H29.1783C29.4139 19.6956 29.6085 19.7314 29.7621 19.8031C29.9158 19.8748 29.9926 20.0233 29.9926 20.2487V27.5614C29.9926 27.7867 29.9158 27.9353 29.7621 28.0069C29.6085 28.0786 29.4139 28.1145 29.1783 28.1145H29.0094V29.3589H34.3096V28.1145H34.1406C34.0382 28.1145 33.9357 28.1145 33.8333 28.1145C33.7411 28.1042 33.6592 28.094 33.5875 28.0838C33.5158 28.0633 33.4595 28.0479 33.4185 28.0377C33.3776 28.0172 33.3571 27.9916 33.3571 27.9609ZM46.5416 18.4512H41.0417V19.6956H41.2107C41.4462 19.6956 41.6408 19.7314 41.7944 19.8031C41.9481 19.8748 42.0249 20.0233 42.0249 20.2487V27.5614C42.0249 27.7867 41.9481 27.9353 41.7944 28.0069C41.6408 28.0786 41.4462 28.1145 41.2107 28.1145H41.0417V29.3589H50.3209V25.4567H48.7846L48.6002 27.3617C48.5797 27.5461 48.5081 27.6843 48.3852 27.7765C48.2622 27.8687 48.0779 27.9353 47.8321 27.9762C47.5863 28.0069 47.2585 28.0223 46.8489 28.0223H45.3894V20.2487C45.3894 20.0233 45.4713 19.8748 45.6352 19.8031C45.7991 19.7314 46.0141 19.6956 46.2804 19.6956H46.5416V18.4512ZM51.3186 19.6956V18.4512H57.0183C57.8991 18.4512 58.698 18.5639 59.4149 18.7892C60.1318 19.0145 60.7515 19.3576 61.2738 19.8185C61.8064 20.2691 62.2161 20.8325 62.5029 21.5084C62.7896 22.1844 62.933 22.9679 62.933 23.859C62.933 24.75 62.7896 25.5386 62.5029 26.2248C62.2161 26.9008 61.8064 27.4744 61.2738 27.9455C60.7515 28.4064 60.1318 28.7597 59.4149 29.0055C58.698 29.2411 57.8991 29.3589 57.0183 29.3589H51.3186V28.1145H51.503C51.7283 28.1145 51.9178 28.0786 52.0714 28.0069C52.225 27.9353 52.3019 27.7867 52.3019 27.5614V20.2487C52.3019 20.0336 52.225 19.8902 52.0714 19.8185C51.9178 19.7366 51.7283 19.6956 51.503 19.6956H51.3186ZM56.7725 19.7878H55.6663V28.0223H56.7725C57.1822 28.0223 57.5509 27.9353 57.8786 27.7611C58.2064 27.587 58.4829 27.3259 58.7082 26.9776C58.9438 26.6192 59.123 26.1839 59.2459 25.6718C59.3688 25.1494 59.4303 24.5452 59.4303 23.859C59.4303 23.1727 59.3688 22.5787 59.2459 22.0768C59.123 21.5648 58.9438 21.1397 58.7082 20.8017C58.4829 20.4637 58.2064 20.2128 57.8786 20.0489C57.5509 19.8748 57.1822 19.7878 56.7725 19.7878Z" fill="#2D2D2D"/>
<path d="M18.7574 41.9198V33.7468H19.7867C20.1247 33.7468 20.4115 33.8184 20.6471 33.9618C20.8826 34.1052 21.067 34.3254 21.2001 34.6224C21.3333 34.9092 21.3998 35.2882 21.3998 35.7593C21.3998 36.2304 21.3333 36.6196 21.2001 36.9269C21.067 37.2341 20.8775 37.4646 20.6317 37.6182C20.3859 37.7718 20.0889 37.8487 19.7406 37.8487H18.2965V39.1852H20.4627C21.323 39.1852 22.0707 39.047 22.7057 38.7704C23.3407 38.4939 23.8272 38.0945 24.1652 37.5721C24.5134 37.0498 24.6875 36.425 24.6875 35.6978C24.6875 34.6429 24.3188 33.8338 23.5814 33.2705C22.8542 32.697 21.8403 32.4102 20.5395 32.4102H14.4097V33.6085H14.5787C14.8143 33.6085 15.0089 33.6443 15.1625 33.716C15.3161 33.7877 15.3929 33.9362 15.3929 34.1616V41.5665C15.3929 41.7918 15.3161 41.9403 15.1625 42.012C15.0089 42.0837 14.8143 42.1196 14.5787 42.1196H14.4097V43.3179H19.9404V42.0735H19.5563C19.4641 42.0735 19.3668 42.0735 19.2644 42.0735C19.1722 42.0632 19.0852 42.053 19.0032 42.0427C18.9315 42.0223 18.8701 42.0069 18.8189 41.9967C18.7779 41.9762 18.7574 41.9506 18.7574 41.9198ZM26.4811 41.5204V34.2076C26.4811 33.9823 26.4043 33.8338 26.2507 33.7621C26.0971 33.6904 25.9025 33.6546 25.6669 33.6546H25.4518V32.4102H30.8749V33.6546H30.6752C30.4294 33.6546 30.2297 33.6904 30.0761 33.7621C29.9224 33.8338 29.8456 33.9823 29.8456 34.2076V41.5204C29.8456 41.7457 29.9224 41.8942 30.0761 41.9659C30.2297 42.0376 30.4294 42.0735 30.6752 42.0735H30.8749V43.3179H25.4518V42.0735H25.6669C25.9025 42.0735 26.0971 42.0376 26.2507 41.9659C26.4043 41.8942 26.4811 41.7457 26.4811 41.5204ZM35.2222 33.7468C34.9969 33.7468 34.792 33.757 34.6077 33.7775C34.4335 33.7877 34.2799 33.8184 34.1468 33.8697C34.0239 33.9209 33.9266 33.9926 33.8549 34.0847C33.7934 34.1667 33.7525 34.2793 33.732 34.4227L33.6244 35.8361H32.1035V32.4102H40.845V34.2537L34.4233 42.9645L33.8549 41.9813H37.6188C38.0182 41.9813 38.3409 41.9659 38.5867 41.9352C38.8427 41.8942 39.0271 41.8277 39.1397 41.7355C39.2626 41.6331 39.3343 41.4897 39.3548 41.3053L39.5699 39.4925H41.0755V43.3179H31.827V41.4129L38.0643 32.9632L38.5252 33.7468H35.2222ZM45.5142 33.7468C45.2888 33.7468 45.084 33.757 44.8996 33.7775C44.7255 33.7877 44.5719 33.8184 44.4387 33.8697C44.3158 33.9209 44.2185 33.9926 44.1469 34.0847C44.0854 34.1667 44.0444 34.2793 44.0239 34.4227L43.9164 35.8361H42.3955V32.4102H51.137V34.2537L44.7153 42.9645L44.1469 41.9813H47.9108C48.3102 41.9813 48.6328 41.9659 48.8786 41.9352C49.1347 41.8942 49.319 41.8277 49.4317 41.7355C49.5546 41.6331 49.6263 41.4897 49.6468 41.3053L49.8619 39.4925H51.3674V43.3179H42.1189V41.4129L48.3563 32.9632L48.8172 33.7468H45.5142ZM54.6382 38.6783H58.7862L58.8476 39.9227H54.5767L54.6382 38.6783ZM56.4356 33.3934L56.8965 33.9157L54.4692 41.7662C54.4692 41.8277 54.505 41.884 54.5767 41.9352C54.6587 41.9762 54.7662 42.012 54.8994 42.0427C55.0325 42.0632 55.1861 42.0735 55.3602 42.0735H55.5292V43.3179H52.2262V42.0735H52.303C52.5181 42.0735 52.6922 42.0223 52.8254 41.9198C52.9687 41.8072 53.0865 41.5972 53.1787 41.29L55.9901 32.3641H59.4775L62.3504 41.4282C62.4323 41.6843 62.5399 41.8584 62.673 41.9506C62.8164 42.0325 62.9956 42.0735 63.2107 42.0735H63.2875V43.3179H57.9412V42.0735H58.1409C58.315 42.0735 58.4687 42.0684 58.6018 42.0581C58.735 42.0479 58.8374 42.0325 58.9091 42.012C58.991 41.9813 59.032 41.9506 59.032 41.9198L56.4356 33.3934Z" fill="#2D2D2D"/>
<path d="M3.64472 39.2188C3.18865 39.2188 2.7755 39.1544 2.40527 39.0256C2.03505 38.9022 1.71848 38.7144 1.45556 38.4622C1.19265 38.2047 0.988758 37.8854 0.843888 37.5045C0.704382 37.1182 0.63463 36.6701 0.63463 36.1604C0.63463 35.6507 0.704382 35.2053 0.843888 34.8244C0.988758 34.4381 1.19265 34.1188 1.45556 33.8666C1.71848 33.6091 2.03505 33.4186 2.40527 33.2952C2.7755 33.1664 3.18865 33.102 3.64472 33.102C4.1008 33.102 4.51395 33.1664 4.88417 33.2952C5.2544 33.4186 5.57097 33.6091 5.83388 33.8666C6.0968 34.1188 6.29801 34.4381 6.43751 34.8244C6.57702 35.2053 6.64677 35.6507 6.64677 36.1604C6.64677 36.6701 6.57702 37.1182 6.43751 37.5045C6.29801 37.8854 6.0968 38.2047 5.83388 38.4622C5.57097 38.7144 5.2544 38.9022 4.88417 39.0256C4.51395 39.1544 4.1008 39.2188 3.64472 39.2188ZM3.64472 38.4461C3.86471 38.4461 4.05519 38.4086 4.21616 38.3335C4.37713 38.253 4.50858 38.1242 4.61053 37.9471C4.71247 37.7701 4.78759 37.534 4.83588 37.2389C4.88954 36.9438 4.91637 36.5843 4.91637 36.1604C4.91637 35.7365 4.88954 35.377 4.83588 35.0819C4.78759 34.7868 4.71247 34.5507 4.61053 34.3737C4.50858 34.1966 4.37713 34.0705 4.21616 33.9954C4.05519 33.9149 3.86471 33.8747 3.64472 33.8747C3.42473 33.8747 3.23426 33.9149 3.07329 33.9954C2.91232 34.0705 2.77818 34.1966 2.67087 34.3737C2.56892 34.5507 2.49112 34.7868 2.43747 35.0819C2.38918 35.377 2.36503 35.7365 2.36503 36.1604C2.36503 36.5843 2.38918 36.9438 2.43747 37.2389C2.49112 37.534 2.56892 37.7701 2.67087 37.9471C2.77282 38.1242 2.90427 38.253 3.06524 38.3335C3.23157 38.4086 3.42473 38.4461 3.64472 38.4461ZM9.55116 34.0115V38.2127C9.55116 38.2288 9.56458 38.2423 9.59141 38.253C9.6236 38.2583 9.66384 38.2664 9.71213 38.2771C9.76042 38.2825 9.81676 38.2879 9.88115 38.2932C9.9509 38.2932 10.026 38.2932 10.1065 38.2932H10.2594V39.0176H7.34591V38.2932H7.43444C7.56321 38.2932 7.67053 38.2744 7.75638 38.2369C7.84222 38.1993 7.88515 38.1215 7.88515 38.0035V34.3173C7.88515 34.1993 7.84222 34.1215 7.75638 34.0839C7.67053 34.0464 7.56321 34.0276 7.43444 34.0276H7.34591V33.3032H12.2876V34.9129H11.4989L11.4103 34.3737C11.3942 34.2771 11.354 34.2046 11.2896 34.1564C11.2306 34.1027 11.1421 34.0651 11.024 34.0437C10.9113 34.0222 10.7745 34.0115 10.6135 34.0115H9.55116ZM9.42239 35.9029C9.65848 35.8814 9.89456 35.8626 10.1306 35.8465C10.3721 35.8251 10.6109 35.8036 10.847 35.7821C11.083 35.7607 11.3218 35.7419 11.5633 35.7258V36.7077C11.3218 36.6862 11.083 36.6675 10.847 36.6514C10.6162 36.6299 10.3801 36.6111 10.1387 36.595C9.90261 36.5736 9.66384 36.5548 9.42239 36.5387V35.9029Z" fill="#2D2D2D"/>
<path d="M29.8586 13.7801C28.9587 12.1303 28.7787 8.47071 35.258 7.03088C36.0079 10.0305 36.4278 15.8498 32.1083 15.1299C32.1083 14.0072 32.2659 11.7551 32.876 11.1753C31.792 11.9568 29.8586 13.4347 29.8586 13.7801Z" fill="#4DB955"/>
<circle cx="20.4074" cy="12.7373" r="3.14962" fill="#E04E46"/>
<circle cx="43.9853" cy="12.6657" r="1.79978" fill="#E04E46"/>
</g>
<defs>
<clipPath id="clip0_7_3">
<rect width="63" height="46" fill="white"/>
</clipPath>
</defs>
</svg>
